<svg id="Layer_3" data-name="Layer 3" xmlns="http://www.w3.org/2000/svg" xmlns:xlink="http://www.w3.org/1999/xlink" viewBox="0 0 1027.09 948.07"><defs><style>.cls-1{fill:url(#Áåçûìÿííûé_ãðàäèåíò_199);}.cls-2{fill:url(#linear-gradient);}.cls-3{fill:url(#Áåçûìÿííûé_ãðàäèåíò_206);}</style><linearGradient id="Áåçûìÿííûé_ãðàäèåíò_199" x1="1113.95" y1="1003.5" x2="2141.05" y2="1003.5" gradientUnits="userSpaceOnUse"><stop offset="0" stop-color="#ff161b"/><stop offset="1" stop-color="#580dbf"/></linearGradient><linearGradient id="linear-gradient" x1="1601.42" y1="738.45" x2="1602.81" y2="738.45" gradientUnits="userSpaceOnUse"><stop offset="0" stop-color="#90641a"/><stop offset="0.02" stop-color="#9d7322"/><stop offset="0.08" stop-color="#c7a23d"/><stop offset="0.14" stop-color="#e6c450"/><stop offset="0.19" stop-color="#f8d95c"/><stop offset="0.22" stop-color="#ffe160"/><stop offset="0.27" stop-color="#ffea7d"/><stop offset="0.32" stop-color="#fff092"/><stop offset="0.37" stop-color="#fff49f"/><stop offset="0.42" stop-color="#fff5a3"/><stop offset="0.47" stop-color="#fff49e"/><stop offset="0.53" stop-color="#ffef91"/><stop offset="0.59" stop-color="#ffe87b"/><stop offset="0.65" stop-color="#ffde5c"/><stop offset="0.67" stop-color="#ffd94d"/><stop offset="0.84" stop-color="#ffd94d"/><stop offset="0.92" stop-color="#c79e33"/><stop offset="1" stop-color="#90641a"/></linearGradient><linearGradient id="Áåçûìÿííûé_ãðàäèåíò_206" x1="1150.93" y1="1107.96" x2="2141.05" y2="1107.96" gradientUnits="userSpaceOnUse"><stop offset="0" stop-color="#ff7f18"/><stop offset="0.12" stop-color="#ff612d"/><stop offset="0.35" stop-color="#ff2955"/><stop offset="0.46" stop-color="#ff1364"/><stop offset="1" stop-color="#580dbf"/></linearGradient></defs><path class="cls-1" d="M1988.63,1270.58c50.94-72.48,89.11-164.57,89.11-267.11,0-272.9-199.81-474-481.89-474s-481.9,201.1-481.9,474c0,91.61,22.48,175.12,63.1,245.64,80.27,139.65,231.36,228.42,418.8,228.42,96,0,178.26-26.75,248.11-70.52l40.47,53.56h256.62Zm-149.26-182.87-29.38-39.8H1572.34l144.29,193.26c-35.26,17.63-76.4,27.43-120.78,27.43-148.88,0-254.66-108.41-254.66-265.13,0-152.17,99.75-258.73,241.82-264.81,4.23-.16,8.51-.26,12.84-.26,1.85,0,3.71,0,5.57.1a6.46,6.46,0,0,1,1.39,0,6.86,6.86,0,0,1,1,.06,276.11,276.11,0,0,1,44.49,4.58c120.68,22.43,202.18,122.74,202.18,260.33a312.47,312.47,0,0,1-10.52,81.81C1839.84,1086.11,1839.58,1086.93,1839.37,1087.71Z" transform="translate(-1113.95 -529.47)"/><path class="cls-2" d="M1601.42,738.4s.46,0,1.39.1a6.46,6.46,0,0,0-1.39,0Z" transform="translate(-1113.95 -529.47)"/><path class="cls-3" d="M2141.05,1460.57H1884.43L1844,1407c-69.85,43.77-152.12,70.52-248.11,70.52-187.44,0-338.53-88.77-418.8-228.42-99.39-278.53,95.83-516.74,399.88-510.61l6.08.16c-142.07,6.08-241.82,112.64-241.82,264.81,0,156.72,105.78,265.13,254.66,265.13,44.38,0,85.52-9.8,120.78-27.43l-144.29-193.26H1810l30,37.37Z" transform="translate(-1113.95 -529.47)"/></svg>